<svg xmlns="http://www.w3.org/2000/svg" viewBox="0 0 100 100">
<svg version="1.0" xmlns="http://www.w3.org/2000/svg"
 width="1800.000000pt" height="1800.000000pt" viewBox="0 0 1800.000000 1800.000000"
 preserveAspectRatio="xMidYMid meet">
<g transform="translate(0.000000,1800.000000) scale(0.100000,-0.100000)"
fill="#000000" stroke="none">
<path d="M8680 16008 c-11 -18 -20 -37 -20 -43 0 -13 -45 -123 -54 -132 -3 -3
-6 -17 -6 -29 0 -13 -4 -25 -10 -29 -5 -3 -14 -20 -19 -38 -10 -32 -22 -64
-61 -167 -12 -30 -25 -66 -30 -80 -5 -14 -18 -50 -30 -80 -43 -109 -45 -107
69 -100 88 5 94 9 111 70 21 75 20 75 190 75 125 0 154 -3 161 -15 4 -8 18
-39 31 -67 l23 -53 92 0 c50 0 94 3 97 8 2 4 -16 50 -41 102 -50 106 -65 140
-118 255 -20 44 -48 105 -62 135 -14 30 -43 92 -65 138 l-40 82 -99 0 -99 0
-20 -32z m161 -246 c16 -37 36 -80 44 -95 8 -16 15 -40 15 -53 0 -25 0 -25
-92 -22 l-93 3 3 30 c2 17 8 35 14 42 5 7 14 27 18 45 5 18 14 49 21 68 6 19
14 41 15 48 6 23 24 2 55 -66z"/>
<path d="M10692 15965 c-29 -31 -52 -60 -52 -64 0 -5 14 -14 31 -20 27 -9 41
-6 125 35 52 25 94 49 94 53 0 11 -63 36 -111 45 -34 6 -39 3 -87 -49z"/>
<path d="M9541 15992 c-6 -12 -11 -42 -11 -69 -1 -26 -7 -84 -15 -128 -8 -44
-15 -98 -15 -120 0 -22 -7 -78 -14 -125 -8 -47 -16 -123 -18 -170 l-3 -84 75
-13 c97 -16 100 -13 111 114 5 54 13 112 17 128 8 28 12 30 53 29 24 0 90 -6
147 -14 118 -16 116 -17 127 59 9 57 -4 68 -93 75 -107 9 -194 24 -205 35 -10
10 6 129 20 142 5 4 40 1 78 -6 92 -17 200 -24 215 -15 15 9 33 101 23 111 -9
9 -146 32 -298 50 -191 23 -182 23 -194 1z"/>
<path d="M7770 15950 c-115 -13 -223 -68 -303 -155 -89 -97 -106 -272 -38
-404 56 -108 208 -191 350 -191 108 0 276 61 346 126 36 33 36 34 30 91 -4 32
-13 83 -21 113 -7 30 -15 69 -16 85 -3 28 -6 30 -51 33 -26 2 -72 -4 -102 -12
-29 -9 -66 -16 -83 -16 -47 0 -57 -21 -42 -86 15 -63 21 -69 51 -54 31 17 66
5 74 -27 9 -39 -26 -66 -105 -83 -109 -23 -195 5 -251 84 -26 35 -29 47 -29
116 0 69 3 81 29 117 66 91 132 115 310 112 l136 -2 -1 45 c0 24 -6 58 -13 75
-11 27 -18 31 -64 37 -60 7 -129 6 -207 -4z"/>
<path d="M10442 15848 c-7 -7 -12 -21 -12 -32 0 -10 -7 -44 -16 -75 -9 -31
-22 -80 -30 -108 -8 -29 -21 -79 -30 -110 -9 -32 -22 -80 -29 -108 -7 -27 -20
-75 -28 -105 -9 -30 -18 -74 -22 -96 -6 -41 -6 -41 35 -58 22 -9 48 -16 56
-16 9 0 37 -7 63 -15 25 -8 73 -22 106 -30 33 -9 80 -22 105 -30 76 -23 139
-29 144 -14 19 70 22 100 12 108 -6 5 -38 16 -71 26 -122 34 -161 44 -190 50
-47 10 -56 22 -48 69 10 63 31 106 51 106 10 0 38 -6 63 -14 84 -26 154 -45
191 -51 42 -8 51 3 62 73 6 39 4 43 -21 53 -31 12 -160 47 -221 61 -24 6 -46
16 -49 24 -3 8 1 38 9 67 13 45 18 52 42 55 15 2 49 -3 74 -11 137 -44 213
-60 231 -48 13 9 35 97 26 110 -4 8 -122 43 -285 85 -36 10 -85 24 -110 32
-55 17 -92 18 -108 2z"/>
<path d="M6815 15708 c-27 -11 -60 -22 -72 -25 -26 -6 -36 -28 -23 -52 8 -16
27 -65 50 -131 5 -14 18 -50 30 -80 38 -98 52 -142 46 -147 -2 -3 -42 15 -88
40 -46 25 -117 63 -158 85 -41 21 -115 61 -164 86 l-89 48 -73 -33 c-77 -33
-87 -47 -59 -85 8 -10 15 -27 15 -36 0 -9 6 -29 14 -45 8 -15 22 -47 30 -70 9
-24 23 -61 31 -83 8 -22 22 -59 31 -82 8 -24 22 -56 30 -71 8 -16 14 -36 14
-46 0 -9 7 -26 15 -37 8 -10 15 -27 15 -36 0 -9 7 -29 14 -45 8 -15 18 -36 21
-47 4 -15 11 -17 42 -11 21 4 50 13 65 21 15 8 34 14 43 14 25 0 29 27 11 71
-9 21 -23 57 -31 79 -40 107 -48 127 -61 152 -8 14 -14 33 -14 42 0 9 -7 28
-16 42 -29 43 -4 48 62 13 68 -36 195 -105 239 -129 17 -9 69 -38 117 -64 l87
-47 43 15 c104 35 109 40 84 98 -13 32 -27 68 -62 161 -8 23 -22 55 -30 70 -8
16 -14 36 -14 46 0 9 -7 26 -15 37 -8 10 -15 28 -15 40 0 11 -7 29 -15 40 -8
10 -15 27 -15 36 0 9 -6 29 -14 45 -14 27 -38 88 -50 126 -6 20 -8 20 -71 -5z"/>
<path d="M11376 15555 c-9 -9 -16 -21 -16 -27 0 -6 -12 -36 -26 -67 -14 -31
-35 -76 -46 -101 -23 -52 -35 -79 -77 -173 -17 -37 -31 -69 -31 -72 0 -3 -13
-33 -29 -67 -37 -83 -55 -128 -50 -132 2 -1 24 -12 49 -23 25 -12 75 -35 113
-52 37 -17 69 -31 72 -31 3 0 35 -14 72 -31 154 -71 172 -79 181 -79 14 0 54
86 50 106 -3 19 -9 23 -98 63 -204 91 -210 95 -210 115 0 11 14 50 31 86 30
64 49 106 74 165 6 17 21 50 33 75 89 194 89 197 25 227 -73 33 -98 37 -117
18z"/>
<path d="M5720 15229 c-30 -16 -60 -35 -67 -42 -14 -15 -5 -35 219 -452 26
-49 58 -111 71 -137 12 -26 28 -48 35 -48 17 0 128 58 142 75 11 14 9 19 -147
313 -35 64 -74 140 -88 167 -55 106 -82 150 -96 152 -8 1 -39 -11 -69 -28z"/>
<path d="M12310 15112 c-8 -3 -122 -87 -254 -186 -131 -100 -260 -197 -287
-216 -33 -24 -49 -42 -49 -57 0 -13 4 -23 9 -23 5 0 33 -16 63 -35 59 -40 83
-40 125 -1 60 55 60 55 190 -22 157 -94 158 -94 138 -167 -13 -53 -13 -60 1
-76 26 -28 134 -91 148 -86 8 3 15 28 18 59 3 29 11 94 17 143 7 50 18 140 26
200 8 61 19 148 25 195 6 47 14 104 17 128 5 38 3 45 -18 60 -29 21 -59 39
-79 48 -8 4 -22 12 -30 19 -21 17 -43 23 -60 17z m5 -222 c3 -5 -1 -39 -10
-75 -8 -37 -15 -84 -15 -105 0 -72 -18 -85 -71 -52 -15 9 -45 28 -68 41 -22
14 -41 30 -41 37 0 7 39 43 88 80 48 38 89 72 90 76 5 11 20 10 27 -2z"/>
<path d="M8680 14955 c-14 -2 -92 -9 -175 -15 -308 -22 -630 -73 -920 -146
-144 -37 -182 -47 -220 -58 -22 -7 -67 -21 -100 -31 -33 -10 -91 -29 -130 -42
-38 -14 -79 -27 -90 -30 -24 -6 -236 -88 -285 -109 -19 -9 -48 -22 -65 -28
-16 -7 -46 -20 -65 -28 -60 -27 -424 -209 -435 -218 -5 -4 -37 -22 -70 -40
-33 -18 -78 -45 -100 -59 -22 -15 -47 -30 -55 -34 -77 -38 -443 -296 -570
-402 -40 -33 -88 -72 -107 -87 -99 -76 -401 -368 -560 -540 -96 -103 -291
-342 -356 -436 -21 -30 -57 -80 -80 -111 -58 -77 -194 -285 -227 -346 -6 -11
-19 -33 -29 -50 -11 -16 -29 -48 -41 -70 -12 -22 -36 -65 -53 -95 -55 -99
-173 -341 -222 -458 -8 -18 -21 -47 -28 -65 -8 -17 -22 -52 -32 -77 -9 -25
-23 -57 -31 -72 -8 -14 -14 -35 -14 -45 0 -10 -6 -27 -14 -38 -7 -11 -16 -31
-19 -45 -3 -14 -11 -41 -17 -60 -7 -19 -18 -51 -25 -70 -7 -19 -18 -51 -25
-70 -6 -19 -16 -51 -20 -70 -4 -19 -13 -48 -18 -65 -20 -58 -59 -209 -85 -325
-39 -172 -67 -321 -77 -405 -4 -38 -13 -101 -19 -140 -31 -207 -41 -390 -41
-745 1 -201 5 -399 10 -440 5 -41 12 -111 15 -155 4 -44 13 -123 21 -175 36
-228 46 -288 60 -342 8 -32 14 -67 14 -79 0 -12 6 -45 14 -73 20 -72 36 -134
46 -181 5 -22 18 -71 30 -110 12 -38 25 -86 30 -105 9 -39 26 -89 46 -138 8
-18 14 -39 14 -47 0 -8 6 -29 14 -47 14 -33 36 -89 63 -163 8 -22 21 -53 28
-70 7 -16 30 -70 50 -120 61 -148 142 -316 222 -460 18 -33 36 -67 40 -75 8
-18 160 -271 185 -309 10 -14 21 -33 25 -42 15 -31 285 -398 347 -473 356
-425 677 -729 1091 -1029 72 -52 253 -175 297 -202 9 -5 48 -29 85 -51 37 -23
90 -54 117 -69 28 -15 70 -40 95 -55 116 -68 485 -241 646 -302 119 -46 214
-80 275 -99 36 -12 81 -27 100 -34 45 -16 203 -61 315 -89 186 -47 482 -106
529 -106 16 0 68 -7 115 -15 277 -47 916 -62 1236 -30 421 42 749 104 1110
210 157 46 482 162 590 210 17 7 59 26 95 41 61 27 437 214 470 234 8 5 73 43
143 85 137 81 401 256 501 332 438 336 828 728 1143 1150 65 87 123 166 128
175 6 9 33 49 60 89 28 41 55 81 60 91 6 10 40 66 76 125 36 59 69 115 72 123
4 8 23 42 42 75 52 91 192 376 239 490 7 17 20 46 28 65 15 34 35 84 62 158 8
20 20 55 29 77 47 126 64 174 82 238 8 26 21 71 30 100 9 28 20 71 25 95 5 23
14 51 20 61 5 11 10 32 10 46 0 14 5 35 11 46 6 11 14 41 18 67 5 26 13 67 19
92 49 208 93 506 117 805 17 211 19 606 5 760 -5 55 -12 136 -15 180 -9 136
-53 443 -80 565 -9 36 -15 74 -15 84 0 11 -6 42 -14 70 -19 69 -37 143 -46
191 -4 22 -12 54 -18 70 -6 17 -18 57 -27 90 -28 98 -47 158 -58 185 -5 14
-13 39 -17 55 -5 17 -18 55 -30 85 -12 30 -25 69 -30 85 -4 17 -13 44 -20 60
-7 17 -19 45 -26 63 -8 17 -20 47 -27 65 -13 30 -23 53 -61 140 -27 62 -78
172 -86 187 -5 8 -34 65 -65 125 -31 61 -66 126 -77 145 -11 19 -31 55 -45 80
-13 25 -33 59 -44 75 -10 17 -22 37 -26 45 -8 16 -183 278 -230 345 -91 130
-218 291 -323 410 -25 28 -62 71 -82 95 -41 48 -217 227 -330 335 -67 65 -199
180 -338 296 -77 64 -384 289 -395 289 -2 0 -32 19 -67 43 -70 48 -248 156
-348 211 -125 69 -443 223 -550 266 -30 12 -64 26 -74 32 -11 6 -31 14 -45 18
-14 5 -51 18 -81 30 -78 30 -333 114 -410 135 -36 9 -85 23 -110 30 -25 7 -76
21 -115 30 -38 9 -93 23 -121 31 -28 8 -61 14 -73 14 -13 0 -50 7 -84 14 -114
27 -362 62 -607 87 -108 10 -675 21 -730 14z m670 -194 c402 -33 765 -99 1130
-205 72 -21 341 -110 405 -134 65 -25 185 -74 255 -105 42 -18 419 -204 440
-217 8 -5 51 -29 95 -55 89 -51 85 -48 175 -105 36 -23 74 -46 84 -53 77 -47
457 -324 476 -346 3 -4 30 -26 60 -51 139 -113 526 -496 640 -633 41 -49 89
-106 106 -126 33 -38 217 -286 272 -367 85 -125 193 -299 253 -409 18 -33 40
-73 50 -90 33 -55 175 -352 223 -467 60 -142 76 -183 76 -197 0 -9 5 -22 11
-28 6 -6 14 -26 19 -44 8 -30 39 -126 75 -229 18 -51 65 -220 88 -315 8 -33
20 -80 27 -105 6 -25 15 -67 19 -95 5 -27 13 -72 19 -100 78 -362 123 -1018
92 -1350 -5 -55 -12 -138 -15 -185 -9 -135 -51 -433 -80 -570 -8 -36 -16 -78
-18 -95 -2 -16 -10 -52 -17 -80 -6 -27 -19 -77 -27 -110 -20 -80 -42 -163 -55
-200 -5 -16 -13 -46 -18 -65 -4 -19 -12 -46 -17 -60 -15 -37 -34 -91 -43 -125
-10 -34 -36 -110 -49 -140 -5 -11 -15 -38 -24 -60 -75 -198 -241 -550 -333
-710 -19 -33 -39 -69 -44 -80 -6 -11 -19 -33 -30 -50 -11 -16 -24 -39 -30 -50
-11 -23 -19 -35 -77 -123 -24 -35 -43 -65 -43 -68 0 -4 -53 -78 -78 -109 -4
-5 -27 -38 -51 -73 -187 -276 -619 -739 -941 -1007 -100 -84 -418 -318 -488
-360 -9 -6 -45 -29 -80 -53 -35 -23 -65 -42 -67 -42 -2 0 -21 -12 -42 -26 -21
-14 -47 -30 -58 -35 -11 -5 -33 -17 -50 -27 -139 -85 -404 -215 -600 -297 -49
-20 -121 -50 -159 -66 -38 -16 -76 -29 -85 -29 -9 0 -21 -4 -26 -8 -13 -12
-209 -75 -390 -126 -115 -32 -164 -45 -240 -61 -44 -9 -107 -23 -140 -30 -149
-33 -405 -68 -640 -90 -395 -36 -992 -10 -1367 61 -224 41 -323 62 -423 88
-126 33 -183 49 -220 61 -22 7 -67 20 -100 30 -33 10 -78 24 -100 32 -22 9
-57 21 -77 29 -45 17 -102 38 -160 60 -24 9 -55 22 -70 30 -14 8 -31 14 -37
14 -19 0 -467 215 -541 260 -8 5 -78 46 -155 91 -545 321 -1106 809 -1480
1287 -28 35 -67 85 -88 110 -37 46 -85 115 -189 270 -29 42 -55 79 -58 82 -4
3 -10 12 -14 20 -8 17 -21 38 -59 98 -15 23 -37 59 -48 80 -11 20 -28 51 -38
67 -83 142 -225 427 -281 565 -12 30 -28 69 -35 85 -7 17 -20 49 -29 73 -35
92 -47 124 -60 160 -8 20 -22 62 -32 92 -9 30 -22 71 -29 90 -7 19 -20 62 -29
95 -10 33 -22 74 -28 90 -5 17 -14 48 -18 70 -5 22 -14 60 -20 85 -42 161 -88
389 -100 495 -4 33 -12 96 -19 140 -32 238 -41 391 -41 720 0 241 5 372 15
450 8 61 15 133 15 160 0 28 5 70 11 95 6 25 14 79 19 120 8 74 17 124 46 270
14 70 23 105 54 235 7 28 16 66 21 85 7 32 22 83 65 225 8 28 19 64 24 80 15
53 40 119 50 137 6 10 10 26 10 36 0 10 7 27 15 38 8 10 15 27 15 36 0 9 6 29
14 45 8 15 29 64 47 108 58 145 185 410 254 530 19 33 38 67 42 75 67 140 384
607 517 761 17 19 49 57 71 83 87 105 146 168 319 341 227 226 349 334 571
501 351 265 754 500 1140 664 201 86 446 174 620 224 33 9 83 23 110 31 28 7
77 20 110 28 33 8 83 21 110 27 28 7 73 16 100 20 28 4 68 12 90 18 86 23 423
68 575 78 58 4 139 10 180 15 97 10 507 4 680 -10z"/>
<path d="M8610 14391 c-221 -12 -553 -58 -740 -103 -25 -6 -63 -14 -85 -18
-22 -4 -60 -12 -85 -19 -25 -7 -67 -19 -95 -26 -121 -33 -333 -99 -397 -124
-13 -5 -41 -16 -63 -24 -275 -103 -619 -269 -800 -385 -11 -6 -29 -16 -40 -21
-21 -10 -155 -96 -239 -153 -112 -77 -345 -254 -356 -271 -10 -17 86 -116 833
-865 465 -466 1193 -1197 1618 -1624 425 -428 777 -778 783 -778 5 0 27 19 49
43 22 23 534 539 1140 1147 2115 2124 2048 2055 2041 2073 -9 24 -388 303
-506 372 -9 6 -54 33 -100 60 -138 83 -184 109 -328 181 -174 88 -302 145
-425 191 -22 8 -53 20 -70 27 -107 45 -378 129 -580 180 -167 42 -513 106
-571 106 -17 0 -74 6 -127 14 -114 18 -641 28 -857 17z"/>
<path d="M5315 12895 c-27 -29 -82 -86 -120 -126 -101 -105 -239 -268 -327
-385 -81 -106 -198 -272 -198 -279 0 -2 -19 -32 -43 -67 -43 -62 -127 -199
-140 -228 -4 -8 -23 -42 -41 -75 -59 -105 -150 -290 -211 -430 -7 -16 -19 -43
-26 -60 -7 -16 -15 -33 -16 -37 -2 -4 20 -31 48 -60 49 -51 1462 -1470 2941
-2953 l718 -721 0 -1637 c0 -1548 1 -1637 18 -1645 34 -18 177 -43 432 -76
129 -17 454 -36 605 -36 214 0 597 31 790 65 44 8 98 16 120 19 22 3 57 11 78
16 l37 11 0 1640 0 1640 1089 1092 c2673 2680 2612 2618 2608 2657 -3 19 -19
67 -37 105 -53 117 -189 386 -226 450 -19 33 -39 69 -44 80 -6 11 -18 32 -28
47 -9 15 -37 59 -62 99 -84 135 -137 212 -229 334 -187 250 -514 615 -551 615
-16 0 -675 -657 -2584 -2575 l-975 -980 -579 580 c-318 319 -1114 1119 -1769
1778 -787 791 -1196 1197 -1209 1196 -10 0 -41 -25 -69 -54z"/>
<path d="M5015 14787 c-64 -37 -105 -74 -105 -95 0 -13 21 -52 48 -87 26 -36
67 -94 92 -131 186 -271 248 -354 266 -354 8 0 34 14 57 30 50 37 167 119 197
140 13 8 52 36 89 63 36 26 69 47 73 47 3 0 9 9 13 20 6 18 -16 58 -52 97 -17
19 -21 17 -77 -25 -70 -53 -215 -152 -231 -158 -7 -3 -23 11 -36 33 -13 21
-48 72 -79 115 -30 42 -70 98 -88 125 -74 109 -136 193 -141 192 -3 -1 -15 -6
-26 -12z"/>
<path d="M12961 14489 c-122 -43 -201 -134 -236 -272 -34 -138 44 -309 193
-419 100 -74 252 -124 281 -92 61 64 171 202 170 214 0 13 -176 170 -200 178
-9 4 -89 -76 -89 -88 0 -3 14 -20 30 -38 35 -38 35 -40 14 -70 -28 -40 -75
-24 -151 55 -48 49 -83 120 -83 169 0 39 30 102 68 139 93 93 223 85 338 -22
49 -45 118 -137 133 -175 6 -16 15 -28 20 -28 14 0 101 102 101 118 0 25 -72
123 -138 188 -140 139 -311 193 -451 143z"/>
<path d="M4525 14361 c-126 -43 -268 -170 -328 -294 -35 -72 -37 -81 -37 -175
0 -89 3 -104 28 -151 35 -67 104 -136 167 -169 44 -23 61 -26 150 -26 95 0
104 2 175 37 112 56 201 146 260 265 16 34 30 72 30 85 0 16 -31 58 -97 130
-83 91 -99 104 -116 96 -10 -6 -57 -48 -105 -93 l-86 -84 17 -25 c9 -14 29
-37 44 -51 l27 -26 34 32 c34 34 52 33 75 -4 32 -50 -75 -162 -180 -188 -61
-16 -116 -4 -169 37 -57 43 -77 88 -78 170 0 67 2 75 38 127 36 52 91 104 141
133 43 25 91 47 114 52 38 9 35 24 -15 80 -46 51 -53 55 -89 42z"/>
<path d="M13827 13773 c-34 -31 -64 -59 -67 -63 -3 -3 -75 -68 -160 -145 -242
-218 -225 -199 -207 -226 23 -31 97 -109 106 -109 7 0 14 6 161 140 47 42 114
103 150 136 113 101 142 128 182 166 l39 38 -52 60 c-29 33 -60 60 -71 60 -10
0 -46 -26 -81 -57z"/>
<path d="M3671 13519 c-28 -33 -51 -67 -51 -74 0 -7 55 -58 123 -114 296 -243
420 -342 427 -339 4 2 31 32 60 67 l53 64 -39 36 c-21 20 -57 50 -78 66 -38
30 -207 167 -256 209 -77 64 -179 146 -183 146 -3 0 -28 -27 -56 -61z"/>
<path d="M14254 13325 c-57 -40 -150 -106 -171 -120 -11 -7 -20 -3 -38 18 -29
33 -55 34 -83 4 -26 -28 -27 -35 -6 -58 22 -25 11 -49 -39 -82 -96 -64 -172
-120 -180 -133 -8 -13 9 -39 153 -236 117 -160 207 -218 337 -218 62 0 84 5
135 30 124 62 194 145 218 259 24 114 -6 211 -115 366 -30 44 -74 108 -97 143
-23 34 -48 62 -54 62 -7 0 -34 -16 -60 -35z m89 -232 c72 -108 78 -123 79
-189 0 -44 -5 -73 -17 -92 -93 -145 -265 -176 -366 -65 -32 34 -89 118 -89
130 1 10 114 93 128 93 12 0 65 -66 75 -92 9 -24 42 -22 72 4 30 26 26 45 -17
100 -16 21 -28 45 -26 54 3 17 104 93 124 94 6 0 23 -17 37 -37z"/>
<path d="M3303 13002 c-77 -72 -126 -149 -147 -233 -15 -62 -15 -70 0 -118 21
-64 67 -110 133 -132 75 -26 142 -6 251 77 92 70 116 84 143 84 27 0 57 -28
57 -54 0 -54 -78 -146 -164 -196 -31 -17 -56 -35 -56 -40 0 -14 93 -72 116
-72 44 0 168 106 195 167 5 11 13 27 18 35 28 47 41 97 41 154 0 55 -4 69 -32
107 -17 24 -41 51 -52 59 -28 20 -85 40 -115 40 -33 0 -103 -21 -122 -37 -8
-7 -19 -13 -23 -13 -4 0 -43 -27 -86 -60 -87 -66 -130 -77 -151 -39 -20 39 14
100 102 182 43 41 79 78 79 83 -1 12 -87 64 -108 64 -9 0 -45 -26 -79 -58z"/>
<path d="M6815 3764 c-22 -19 -51 -45 -65 -57 -14 -13 -44 -37 -67 -56 -24
-18 -43 -38 -43 -44 0 -7 21 -20 48 -30 26 -10 55 -23 64 -28 30 -15 53 -11
231 47 94 31 178 58 186 60 20 6 -2 29 -42 44 -18 7 -45 18 -62 25 -16 7 -50
21 -75 30 -25 9 -60 23 -78 31 -46 20 -52 18 -97 -22z"/>
<path d="M6165 3638 c4 -24 13 -65 20 -93 14 -51 35 -132 61 -237 29 -119 46
-185 62 -242 20 -74 20 -145 0 -188 -9 -18 -23 -52 -32 -75 -9 -24 -23 -62
-32 -85 -9 -24 -22 -59 -29 -78 -7 -19 -23 -59 -35 -88 -20 -51 -20 -55 -4
-73 9 -10 31 -23 48 -28 45 -14 104 -36 161 -61 61 -27 136 -53 139 -48 4 6
34 73 50 111 9 21 16 46 16 57 0 10 4 21 10 25 5 3 14 20 19 38 5 18 19 57 31
87 12 30 26 69 31 87 7 22 29 47 67 75 57 43 425 294 460 313 39 22 122 87
122 96 0 9 -66 42 -120 59 -14 5 -50 18 -80 30 -76 29 -134 50 -141 50 -6 0
-108 -78 -132 -101 -8 -8 -36 -32 -62 -54 -135 -112 -145 -116 -145 -57 0 20
-7 64 -15 97 -8 33 -14 74 -15 92 0 18 -7 66 -16 107 -19 85 0 72 -214 151
-114 43 -156 60 -164 67 -6 4 -23 8 -39 8 -28 0 -29 -1 -22 -42z"/>
<path d="M11030 3430 c-14 -4 -79 -24 -145 -45 -66 -20 -135 -43 -153 -51 -18
-8 -39 -14 -47 -14 -8 0 -29 -6 -47 -14 -18 -8 -87 -31 -153 -51 -144 -46
-154 -53 -136 -98 7 -17 17 -45 21 -62 35 -120 40 -135 75 -235 7 -19 20 -62
30 -95 9 -33 22 -71 27 -85 6 -14 14 -38 18 -55 8 -28 15 -51 45 -135 7 -19
21 -62 30 -95 17 -57 26 -85 55 -165 7 -19 15 -47 17 -63 3 -15 9 -30 14 -33
9 -5 154 35 209 58 14 6 39 14 55 19 43 11 103 34 111 42 4 4 0 24 -8 44 -9
21 -24 65 -33 98 -10 33 -24 75 -31 93 -8 18 -14 39 -14 47 0 8 -6 29 -14 47
-48 117 -42 128 95 155 64 12 184 -81 329 -256 71 -87 77 -91 110 -87 19 2 51
9 70 16 19 7 51 19 70 26 19 7 70 23 113 36 58 17 77 27 77 40 0 10 -26 46
-57 81 -32 34 -73 80 -93 101 -97 109 -193 196 -235 215 -25 11 -45 23 -45 26
0 4 12 22 27 42 78 102 78 225 0 340 -57 85 -142 123 -271 122 -50 0 -102 -4
-116 -9z m27 -257 c17 -16 38 -47 47 -71 15 -39 15 -46 1 -80 -27 -64 -65 -92
-175 -132 -59 -21 -73 -18 -81 15 -7 32 -23 77 -46 135 -20 51 -21 111 -3 120
43 22 112 38 165 39 53 1 65 -3 92 -26z"/>
<path d="M7646 3138 c-3 -13 -7 -52 -9 -88 -3 -36 -10 -114 -16 -175 -6 -60
-17 -191 -26 -290 -8 -99 -20 -229 -26 -290 -18 -180 -22 -265 -12 -265 5 0
63 -7 128 -15 129 -16 255 -20 255 -7 0 4 7 70 15 147 8 77 15 172 15 211 0
123 11 194 29 193 10 0 58 -70 126 -185 61 -102 115 -190 122 -195 8 -7 21 1
45 28 18 20 54 60 79 88 25 27 76 86 114 130 64 75 92 101 100 93 3 -3 -7
-114 -30 -308 -13 -109 -20 -222 -16 -256 1 -11 319 -49 361 -43 21 3 25 10
27 44 2 22 8 83 14 135 6 52 15 147 19 210 10 140 26 315 46 515 9 83 14 166
12 185 -4 42 -19 48 -133 49 -44 1 -109 6 -145 11 l-65 10 -45 -48 c-25 -26
-74 -81 -110 -122 -36 -40 -69 -78 -75 -84 -5 -6 -35 -40 -65 -76 -77 -91 -92
-99 -110 -57 -6 12 -18 34 -28 49 -9 15 -63 104 -120 197 -57 93 -112 177
-122 186 -14 13 -51 19 -157 26 -76 5 -150 11 -165 15 -23 4 -28 2 -32 -18z"/>
<path d="M9785 3129 c-22 -4 -91 -13 -154 -19 -63 -6 -121 -16 -128 -22 -16
-13 -13 -79 12 -258 32 -236 37 -279 45 -370 5 -52 13 -115 19 -140 6 -25 10
-63 10 -85 0 -22 8 -91 18 -152 l18 -113 40 0 c22 0 78 7 125 15 47 8 105 15
130 15 81 0 90 6 90 57 0 25 -7 91 -15 147 -21 153 -37 272 -45 361 -10 102
-27 233 -46 357 -7 53 -14 119 -14 146 0 72 -15 80 -105 61z"/>
</g>
</svg>
</svg>
